<svg width="23" height="24" viewBox="0 0 23 24" fill="none" xmlns="http://www.w3.org/2000/svg">
<path fill-rule="evenodd" clip-rule="evenodd" d="M4.63398 21.7768C4.97327 21.4464 5.14291 21.0446 5.14291 20.5714C5.14291 20.0982 4.9755 19.6942 4.64068 19.3593C4.30586 19.0245 3.90184 18.8571 3.42862 18.8571C2.95541 18.8571 2.55139 19.0245 2.21657 19.3593C1.88175 19.6942 1.71434 20.0982 1.71434 20.5714C1.71434 21.0446 1.88175 21.4486 2.21657 21.7835C2.55139 22.1183 2.95541 22.2857 3.42862 22.2857C3.90184 22.2857 4.30362 22.116 4.63398 21.7768H4.63398ZM9.77681 21.7768C10.1161 21.4464 10.2857 21.0446 10.2857 20.5714C10.2857 20.0982 10.1183 19.6942 9.78351 19.3593C9.44869 19.0245 9.04467 18.8571 8.57146 18.8571C8.09824 18.8571 7.69422 19.0245 7.3594 19.3593C7.02458 19.6942 6.85717 20.0982 6.85717 20.5714C6.85717 21.0446 7.02458 21.4486 7.3594 21.7835C7.69422 22.1183 8.09824 22.2857 8.57146 22.2857C9.04467 22.2857 9.44646 22.116 9.77681 21.7768ZM4.63398 16.6473C4.97327 16.308 5.14291 15.9018 5.14291 15.4285C5.14291 14.9553 4.9755 14.5513 4.64068 14.2165C4.30586 13.8817 3.90184 13.7143 3.42862 13.7143C2.95541 13.7143 2.55139 13.8817 2.21657 14.2165C1.88175 14.5513 1.71434 14.9553 1.71434 15.4285C1.71434 15.9018 1.88175 16.3058 2.21657 16.6406C2.55139 16.9754 2.95541 17.1428 3.42862 17.1428C3.90184 17.1428 4.30362 16.9777 4.63398 16.6473H4.63398ZM14.9196 21.7768C15.2589 21.4464 15.4286 21.0446 15.4286 20.5714C15.4286 20.0982 15.2612 19.6942 14.9263 19.3593C14.5915 19.0245 14.1875 18.8571 13.7143 18.8571C13.2411 18.8571 12.8371 19.0245 12.5022 19.3593C12.1674 19.6942 12 20.0982 12 20.5714C12 21.0446 12.1674 21.4486 12.5022 21.7835C12.8371 22.1183 13.2411 22.2857 13.7143 22.2857C14.1875 22.2857 14.5893 22.116 14.9196 21.7768ZM9.77681 16.6473C10.1161 16.308 10.2857 15.9018 10.2857 15.4285C10.2857 14.9553 10.1183 14.5513 9.78351 14.2165C9.44869 13.8817 9.04467 13.7143 8.57146 13.7143C8.09824 13.7143 7.69422 13.8817 7.3594 14.2165C7.02458 14.5513 6.85717 14.9553 6.85717 15.4285C6.85717 15.9018 7.02458 16.3058 7.3594 16.6406C7.69422 16.9754 8.09824 17.1428 8.57146 17.1428C9.04467 17.1428 9.44646 16.9777 9.77681 16.6473ZM4.63392 11.5044C4.97321 11.1652 5.14285 10.7589 5.14285 10.2857C5.14285 9.81247 4.97544 9.40846 4.64062 9.07363C4.3058 8.73881 3.90178 8.5714 3.42856 8.5714C2.95535 8.5714 2.55133 8.73881 2.21651 9.07363C1.88169 9.40845 1.71428 9.81247 1.71428 10.2857C1.71428 10.7589 1.88169 11.1629 2.21651 11.4977C2.55133 11.8326 2.95535 12 3.42856 12C3.90178 12 4.30356 11.8348 4.63392 11.5044H4.63392ZM14.9196 16.6473C15.2589 16.308 15.4286 15.9018 15.4286 15.4285C15.4286 14.9553 15.2612 14.5513 14.9263 14.2165C14.5915 13.8817 14.1875 13.7143 13.7143 13.7143C13.2411 13.7143 12.8371 13.8817 12.5022 14.2165C12.1674 14.5513 12 14.9553 12 15.4285C12 15.9018 12.1674 16.3058 12.5022 16.6406C12.8371 16.9754 13.2411 17.1428 13.7143 17.1428C14.1875 17.1428 14.5893 16.9777 14.9196 16.6473ZM9.77675 11.5044C10.116 11.1652 10.2857 10.7589 10.2857 10.2857C10.2857 9.81247 10.1183 9.40846 9.78345 9.07363C9.44863 8.73881 9.04461 8.5714 8.5714 8.5714C8.09818 8.5714 7.69416 8.73881 7.35934 9.07363C7.02452 9.40845 6.85711 9.81247 6.85711 10.2857C6.85711 10.7589 7.02452 11.1629 7.35934 11.4977C7.69416 11.8326 8.09818 12 8.5714 12C9.04461 12 9.4464 11.8348 9.77676 11.5044H9.77675ZM20.5714 20.5714V15.4285C20.5714 14.9642 20.4018 14.5625 20.0625 14.2232C19.7232 13.8839 19.3214 13.7142 18.8571 13.7142C18.3928 13.7142 17.991 13.8839 17.6518 14.2232C17.3125 14.5625 17.1428 14.9642 17.1428 15.4285V20.5714C17.1428 21.0357 17.3125 21.4375 17.6518 21.7767C17.991 22.116 18.3928 22.2857 18.8571 22.2857C19.3214 22.2857 19.7232 22.116 20.0625 21.7767C20.4018 21.4375 20.5714 21.0357 20.5714 20.5714ZM14.9196 11.5044C15.2589 11.1652 15.4286 10.7589 15.4286 10.2857C15.4286 9.81247 15.2612 9.40846 14.9263 9.07363C14.5915 8.73881 14.1875 8.5714 13.7143 8.5714C13.2411 8.5714 12.8371 8.73881 12.5022 9.07363C12.1674 9.40845 12 9.81247 12 10.2857C12 10.7589 12.1674 11.1629 12.5022 11.4977C12.8371 11.8326 13.2411 12 13.7143 12C14.1875 12 14.5893 11.8348 14.9196 11.5044ZM20.5714 5.99997V2.5714C20.5714 2.33926 20.4866 2.13837 20.317 1.96873C20.1473 1.79908 19.9464 1.71426 19.7143 1.71426H2.57142C2.33928 1.71426 2.13838 1.79908 1.96874 1.96873C1.7991 2.13837 1.71428 2.33926 1.71428 2.5714V5.99997C1.71428 6.23211 1.7991 6.43301 1.96874 6.60265C2.13838 6.77229 2.33928 6.85711 2.57142 6.85711H19.7143C19.9464 6.85711 20.1473 6.77229 20.317 6.60265C20.4866 6.43301 20.5714 6.23211 20.5714 5.99997ZM20.0625 11.5044C20.4018 11.1652 20.5714 10.7589 20.5714 10.2857C20.5714 9.81247 20.404 9.40846 20.0692 9.07363C19.7344 8.73881 19.3303 8.5714 18.8571 8.5714C18.3839 8.5714 17.9799 8.73881 17.6451 9.07363C17.3102 9.40845 17.1428 9.81247 17.1428 10.2857C17.1428 10.7589 17.3102 11.1629 17.6451 11.4977C17.9799 11.8326 18.3839 12 18.8571 12C19.3303 12 19.7321 11.8348 20.0625 11.5044ZM22.2857 1.71429V22.2857C22.2857 22.75 22.116 23.1518 21.7768 23.4911C21.4375 23.8304 21.0357 24 20.5714 24H1.71429C1.25 24 0.848216 23.8304 0.508928 23.4911C0.169643 23.1518 0 22.75 0 22.2857V1.71429C0 1.25 0.169643 0.848216 0.508928 0.508928C0.848214 0.169643 1.25 0 1.71429 0H20.5714C21.0357 0 21.4375 0.169643 21.7768 0.508928C22.116 0.848214 22.2857 1.25 22.2857 1.71429Z" fill="#15181A"/>
</svg>
