<svg width="70" height="70" viewBox="0 0 70 70" fill="none" xmlns="http://www.w3.org/2000/svg">
<path fill-rule="evenodd" clip-rule="evenodd" d="M70 35C70 54.33 54.33 70 35 70C15.67 70 0 54.33 0 35C0 15.67 15.67 0 35 0C54.33 0 70 15.67 70 35ZM66 35C66 52.1208 52.1208 66 35 66C17.8792 66 4 52.1208 4 35C4 17.8792 17.8792 4 35 4C52.1208 4 66 17.8792 66 35ZM50.4142 23.5858C49.6332 22.8047 48.3668 22.8047 47.5858 23.5858L29 42.1716L21.4142 34.5858C20.6332 33.8047 19.3668 33.8047 18.5858 34.5858C17.8047 35.3668 17.8047 36.6332 18.5858 37.4142L27.5858 46.4142C28.3668 47.1953 29.6332 47.1953 30.4142 46.4142L50.4142 26.4142C51.1953 25.6332 51.1953 24.3668 50.4142 23.5858Z" fill="white"/>
</svg>
