<svg width="23" height="24" viewBox="0 0 23 24" fill="none" xmlns="http://www.w3.org/2000/svg">
<path fill-rule="evenodd" clip-rule="evenodd" d="M1.71435 22.2857H5.5715V18.4286H1.71435V22.2857ZM6.42864 22.2857H10.7144V18.4286H6.42864V22.2857ZM1.71435 17.5715H5.5715V13.2857H1.71435V17.5715ZM6.42864 17.5715H10.7144V13.2857H6.42864V17.5715ZM1.71435 12.4286H5.5715V8.57145H1.71435V12.4286ZM11.5715 22.2857H15.8572V18.4286H11.5715V22.2857ZM6.42862 12.4286H10.7143V8.57145H6.42862V12.4286ZM16.7143 22.2857H20.5714V18.4286H16.7143V22.2857ZM11.5714 17.5714H15.8572V13.2857H11.5714V17.5714ZM6.85715 5.99999V2.14284C6.85715 2.02677 6.81474 1.92632 6.72992 1.8415C6.6451 1.75668 6.54465 1.71427 6.42858 1.71427H5.57144C5.45537 1.71427 5.35492 1.75668 5.2701 1.8415C5.18528 1.92632 5.14287 2.02677 5.14287 2.14284V5.99999C5.14287 6.11606 5.18528 6.2165 5.2701 6.30133C5.35492 6.38615 5.45537 6.42856 5.57144 6.42856H6.42858C6.54465 6.42856 6.6451 6.38615 6.72992 6.30133C6.81474 6.2165 6.85715 6.11606 6.85715 5.99999ZM16.7143 17.5714H20.5714V13.2857H16.7143V17.5714ZM11.5714 12.4286H15.8571V8.57143H11.5714V12.4286ZM16.7143 12.4286H20.5714V8.57143H16.7143V12.4286ZM17.1428 6V2.14286C17.1428 2.02679 17.1004 1.92634 17.0156 1.84152C16.9308 1.7567 16.8303 1.71429 16.7143 1.71429H15.8571C15.7411 1.71429 15.6406 1.7567 15.5558 1.84152C15.471 1.92634 15.4286 2.02679 15.4286 2.14286V6C15.4286 6.11607 15.471 6.21652 15.5558 6.30134C15.6406 6.38616 15.7411 6.42857 15.8571 6.42857H16.7143C16.8303 6.42857 16.9308 6.38616 17.0156 6.30134C17.1004 6.21652 17.1428 6.11607 17.1428 6ZM22.2857 5.14286V22.2857C22.2857 22.75 22.1161 23.1518 21.7768 23.4911C21.4375 23.8304 21.0357 24 20.5714 24H1.71429C1.25 24 0.848217 23.8304 0.508929 23.4911C0.169643 23.1518 0 22.75 0 22.2857V5.14286C0 4.67857 0.169643 4.27679 0.508929 3.9375C0.848215 3.59821 1.25 3.42857 1.71429 3.42857H3.42858V2.14286C3.42858 1.55357 3.6384 1.04911 4.05804 0.629464C4.47768 0.209821 4.98215 0 5.57143 0H6.42858C7.01786 0 7.52233 0.209821 7.94197 0.629464C8.36161 1.04911 8.57143 1.55357 8.57143 2.14286V3.42857H13.7143V2.14286C13.7143 1.55357 13.9241 1.04911 14.3438 0.629464C14.7634 0.209821 15.2679 0 15.8571 0H16.7143C17.3036 0 17.808 0.209821 18.2277 0.629464C18.6473 1.04911 18.8571 1.55357 18.8571 2.14286V3.42857H20.5714C21.0357 3.42857 21.4375 3.59821 21.7768 3.9375C22.1161 4.27678 22.2857 4.67857 22.2857 5.14286H22.2857Z" fill="#15181A"/>
</svg>
