<svg width="21" height="16" viewBox="0 0 21 16" fill="none" xmlns="http://www.w3.org/2000/svg">
<path fill-rule="evenodd" clip-rule="evenodd" d="M7.375 2H17.0137C17.566 2 18.0137 2.44772 18.0137 3V13C18.0137 13.5523 17.566 14 17.0137 14H7.375C7.08664 14 6.81231 13.8755 6.62242 13.6585L2.24742 8.6585C1.91753 8.28148 1.91752 7.71852 2.24742 7.3415L6.62243 2.34149C6.81231 2.12448 7.08664 2 7.375 2ZM5.11727 1.02448C5.68694 0.37344 6.50991 0 7.375 0H17.0137C18.6706 0 20.0137 1.34315 20.0137 3V13C20.0137 14.6569 18.6706 16 17.0137 16H7.375C6.50991 16 5.68693 15.6266 5.11727 14.9755L0.742269 9.97551C-0.247424 8.84443 -0.247422 7.15556 0.742271 6.02449L5.11727 1.02448ZM13.6802 5.083C14.0254 4.73783 14.585 4.73783 14.9302 5.08301C15.2754 5.42818 15.2754 5.98783 14.9302 6.333L13.0552 8.208L14.9302 10.083C15.2754 10.4282 15.2754 10.9878 14.9302 11.333C14.585 11.6782 14.0254 11.6782 13.6802 11.333L11.8052 9.458L9.9302 11.333C9.58502 11.6782 9.02538 11.6782 8.6802 11.333C8.33502 10.9878 8.33502 10.4282 8.6802 10.083L10.5552 8.208L8.6802 6.33301C8.33502 5.98783 8.33502 5.42818 8.6802 5.08301C9.02538 4.73783 9.58502 4.73783 9.9302 5.08301L11.8052 6.95801L13.6802 5.083Z" fill="#FF1717" fill-opacity="0.7"/>
</svg>
