<svg width="72" height="72" viewBox="0 0 72 72" fill="none" xmlns="http://www.w3.org/2000/svg">
<path fill-rule="evenodd" clip-rule="evenodd" d="M3.65625 19.7578V11.6719C3.65625 7.25203 7.2521 3.65625 11.6719 3.65625H19.7578C20.7674 3.65625 21.5859 2.83774 21.5859 1.82812C21.5859 0.818508 20.7674 0 19.7578 0H11.6719C5.23603 0 0 5.23596 0 11.6719V19.7578C0 20.7674 0.818508 21.5859 1.82812 21.5859C2.83774 21.5859 3.65625 20.7674 3.65625 19.7578ZM19.7578 68.3438C20.7674 68.3438 21.5859 69.1623 21.5859 70.1719C21.5859 71.1815 20.7674 72 19.7578 72H11.6719C5.23603 72 0 66.764 0 60.3281V52.2422C0 51.2326 0.818508 50.4141 1.82812 50.4141C2.83774 50.4141 3.65625 51.2326 3.65625 52.2422V60.3281C3.65625 64.7479 7.2521 68.3438 11.6719 68.3438H19.7578ZM72 52.2422V60.3281C72 66.764 66.764 72 60.3281 72H52.2422C51.2326 72 50.4141 71.1815 50.4141 70.1719C50.4141 69.1623 51.2326 68.3438 52.2422 68.3438H60.3281C64.7479 68.3438 68.3438 64.7479 68.3438 60.3281V52.2422C68.3438 51.2326 69.1623 50.4141 70.1719 50.4141C71.1815 50.4141 72 51.2326 72 52.2422ZM72 11.6719V19.7578C72 20.7674 71.1815 21.5859 70.1719 21.5859C69.1623 21.5859 68.3438 20.7674 68.3438 19.7578V11.6719C68.3438 7.25203 64.7479 3.65625 60.3281 3.65625H52.2422C51.2326 3.65625 50.4141 2.83774 50.4141 1.82812C50.4141 0.818508 51.2326 0 52.2422 0H60.3281C66.764 0 72 5.23596 72 11.6719ZM48.6161 53.215C49.3863 52.5036 49.4339 51.3025 48.7225 50.5323C48.011 49.7621 46.81 49.7145 46.0398 50.4259C43.2992 52.9574 39.7337 54.3516 36 54.3516C32.2663 54.3516 28.7008 52.9574 25.9602 50.4259C25.1899 49.7145 23.989 49.7622 23.2775 50.5323C22.5661 51.3025 22.6137 52.5036 23.3839 53.215C26.8282 56.3964 31.3085 58.1484 36 58.1484C40.6915 58.1484 45.1718 56.3964 48.6161 53.215ZM39.7969 27.1406V40.6406C39.7969 43.3158 37.6205 45.4922 34.9453 45.4922H33.3984C32.3499 45.4922 31.5 44.6423 31.5 43.5938C31.5 42.5452 32.3499 41.6953 33.3984 41.6953H34.9453C35.5269 41.6953 36 41.2222 36 40.6406V27.1406C36 26.0921 36.8499 25.2422 37.8984 25.2422C38.9469 25.2422 39.7969 26.0921 39.7969 27.1406ZM52.875 32.4492V27.0352C52.875 26.0449 52.0722 25.2422 51.082 25.2422C50.0918 25.2422 49.2891 26.0449 49.2891 27.0352V32.4492C49.2891 33.4394 50.0918 34.2422 51.082 34.2422C52.0722 34.2422 52.875 33.4394 52.875 32.4492ZM19.5469 32.4492C19.5469 33.4394 20.3496 34.2422 21.3398 34.2422C22.3301 34.2422 23.1328 33.4394 23.1328 32.4492V27.0352C23.1328 26.0449 22.3301 25.2422 21.3398 25.2422C20.3496 25.2422 19.5469 26.0449 19.5469 27.0352V32.4492Z" fill="white"/>
</svg>
